<?xml version="1.0" encoding="UTF-8"?>
<svg xmlns="http://www.w3.org/2000/svg" xmlns:xlink="http://www.w3.org/1999/xlink" viewBox="0 0 100 100" width="100px" height="100px">
<g id="surface6779239">
<rect x="0" y="0" width="100" height="100" style="fill:rgb(86.666667%,86.666667%,86.666667%);fill-opacity:1;stroke:none;"/>
<path style=" stroke:none;fill-rule:nonzero;fill:rgb(78.039217%,92.941177%,90.196079%);fill-opacity:1;" d="M 87.214844 56.710938 C 88.351562 54.554688 89 52.105469 89 49.5 C 89 42.878906 84.839844 37.242188 79 35.023438 C 79 35.015625 79 35.007812 79 35 C 79 23.402344 69.597656 14 58 14 C 48.214844 14 40.019531 20.699219 37.6875 29.757812 C 36.210938 29.273438 34.636719 29 33 29 C 25.308594 29 18.976562 34.792969 18.109375 42.253906 C 12.90625 43.351562 9 47.96875 9 53.5 C 9 59.851562 14.148438 65 20.5 65 C 20.675781 65 20.851562 64.988281 21.027344 64.976562 C 21.023438 65.152344 21 65.324219 21 65.5 C 21 76.820312 30.179688 86 41.5 86 C 47.9375 86 53.675781 83.027344 57.433594 78.386719 C 59.613281 80.609375 62.640625 82 66 82 C 70.648438 82 74.675781 79.351562 76.664062 75.480469 C 77.71875 75.816406 78.835938 76 80 76 C 86.074219 76 91 71.074219 91 65 C 91 61.6875 89.53125 58.726562 87.214844 56.710938 Z M 87.214844 56.710938 "/>
<path style=" stroke:none;fill-rule:nonzero;fill:rgb(100%,100%,100%);fill-opacity:1;" d="M 15.40625 51 L 5.5 51 C 5.222656 51 5 50.777344 5 50.5 C 5 50.222656 5.222656 50 5.5 50 L 15.40625 50 C 15.679688 50 15.90625 50.222656 15.90625 50.5 C 15.90625 50.777344 15.683594 51 15.40625 51 Z M 15.40625 51 "/>
<path style=" stroke:none;fill-rule:nonzero;fill:rgb(100%,100%,100%);fill-opacity:1;" d="M 18.5 51 L 17.5 51 C 17.222656 51 17 50.777344 17 50.5 C 17 50.222656 17.222656 50 17.5 50 L 18.5 50 C 18.777344 50 19 50.222656 19 50.5 C 19 50.777344 18.777344 51 18.5 51 Z M 18.5 51 "/>
<path style=" stroke:none;fill-rule:nonzero;fill:rgb(100%,100%,100%);fill-opacity:1;" d="M 23.492188 53 L 14.5 53 C 14.222656 53 14 52.777344 14 52.5 C 14 52.222656 14.222656 52 14.5 52 L 23.492188 52 C 23.765625 52 23.992188 52.222656 23.992188 52.5 C 23.992188 52.777344 23.765625 53 23.492188 53 Z M 23.492188 53 "/>
<path style=" stroke:none;fill-rule:nonzero;fill:rgb(100%,100%,100%);fill-opacity:1;" d="M 12.5 53 L 11.5 53 C 11.222656 53 11 52.777344 11 52.5 C 11 52.222656 11.222656 52 11.5 52 L 12.5 52 C 12.777344 52 13 52.222656 13 52.5 C 13 52.777344 12.777344 53 12.5 53 Z M 12.5 53 "/>
<path style=" stroke:none;fill-rule:nonzero;fill:rgb(100%,100%,100%);fill-opacity:1;" d="M 9.5 53 L 7.5 53 C 7.222656 53 7 52.777344 7 52.5 C 7 52.222656 7.222656 52 7.5 52 L 9.5 52 C 9.777344 52 10 52.222656 10 52.5 C 10 52.777344 9.777344 53 9.5 53 Z M 9.5 53 "/>
<path style=" stroke:none;fill-rule:nonzero;fill:rgb(100%,100%,100%);fill-opacity:1;" d="M 15.5 55 L 13.5 55 C 13.222656 55 13 54.777344 13 54.5 C 13 54.222656 13.222656 54 13.5 54 L 15.5 54 C 15.777344 54 16 54.222656 16 54.5 C 16 54.777344 15.777344 55 15.5 55 Z M 15.5 55 "/>
<path style=" stroke:none;fill-rule:nonzero;fill:rgb(100%,100%,100%);fill-opacity:1;" d="M 18.5 46 C 18.324219 46 17.675781 46 17.5 46 C 17.222656 46 17 46.222656 17 46.5 C 17 46.777344 17.222656 47 17.5 47 C 17.675781 47 18.324219 47 18.5 47 C 18.777344 47 19 46.777344 19 46.5 C 19 46.222656 18.777344 46 18.5 46 Z M 18.5 46 "/>
<path style=" stroke:none;fill-rule:nonzero;fill:rgb(100%,100%,100%);fill-opacity:1;" d="M 18.5 48 C 18.324219 48 13.675781 48 13.5 48 C 13.222656 48 13 48.222656 13 48.5 C 13 48.777344 13.222656 49 13.5 49 C 13.675781 49 18.324219 49 18.5 49 C 18.777344 49 19 48.777344 19 48.5 C 19 48.222656 18.777344 48 18.5 48 Z M 18.5 48 "/>
<path style=" stroke:none;fill-rule:nonzero;fill:rgb(100%,100%,100%);fill-opacity:1;" d="M 23.5 50 C 23.324219 50 20.675781 50 20.5 50 C 20.222656 50 20 50.222656 20 50.5 C 20 50.777344 20.222656 51 20.5 51 C 20.675781 51 23.324219 51 23.5 51 C 23.777344 51 24 50.777344 24 50.5 C 24 50.222656 23.777344 50 23.5 50 Z M 23.5 50 "/>
<path style=" stroke:none;fill-rule:nonzero;fill:rgb(100%,100%,100%);fill-opacity:1;" d="M 85.5 46 L 75.5 46 C 75.222656 46 75 45.777344 75 45.5 C 75 45.222656 75.222656 45 75.5 45 L 85.5 45 C 85.777344 45 86 45.222656 86 45.5 C 86 45.777344 85.777344 46 85.5 46 Z M 85.5 46 "/>
<path style=" stroke:none;fill-rule:nonzero;fill:rgb(100%,100%,100%);fill-opacity:1;" d="M 89.5 46 L 87.5 46 C 87.222656 46 87 45.777344 87 45.5 C 87 45.222656 87.222656 45 87.5 45 L 89.5 45 C 89.777344 45 90 45.222656 90 45.5 C 90 45.777344 89.777344 46 89.5 46 Z M 89.5 46 "/>
<path style=" stroke:none;fill-rule:nonzero;fill:rgb(100%,100%,100%);fill-opacity:1;" d="M 94.5 48 L 84.5 48 C 84.222656 48 84 47.777344 84 47.5 C 84 47.222656 84.222656 47 84.5 47 L 94.5 47 C 94.777344 47 95 47.222656 95 47.5 C 95 47.777344 94.777344 48 94.5 48 Z M 94.5 48 "/>
<path style=" stroke:none;fill-rule:nonzero;fill:rgb(100%,100%,100%);fill-opacity:1;" d="M 82.5 48 L 81.5 48 C 81.222656 48 81 47.777344 81 47.5 C 81 47.222656 81.222656 47 81.5 47 L 82.5 47 C 82.777344 47 83 47.222656 83 47.5 C 83 47.777344 82.777344 48 82.5 48 Z M 82.5 48 "/>
<path style=" stroke:none;fill-rule:nonzero;fill:rgb(100%,100%,100%);fill-opacity:1;" d="M 79.375 48 L 77.5 48 C 77.222656 48 77 47.777344 77 47.5 C 77 47.222656 77.222656 47 77.5 47 L 79.375 47 C 79.652344 47 79.875 47.222656 79.875 47.5 C 79.875 47.777344 79.652344 48 79.375 48 Z M 79.375 48 "/>
<path style=" stroke:none;fill-rule:nonzero;fill:rgb(100%,100%,100%);fill-opacity:1;" d="M 88.5 44 L 83.5 44 C 83.222656 44 83 43.777344 83 43.5 C 83 43.222656 83.222656 43 83.5 43 L 88.5 43 C 88.777344 43 89 43.222656 89 43.5 C 89 43.777344 88.777344 44 88.5 44 Z M 88.5 44 "/>
<path style=" stroke:none;fill-rule:nonzero;fill:rgb(100%,100%,100%);fill-opacity:1;" d="M 85.5 50 L 83.5 50 C 83.222656 50 83 49.777344 83 49.5 C 83 49.222656 83.222656 49 83.5 49 L 85.5 49 C 85.777344 49 86 49.222656 86 49.5 C 86 49.777344 85.777344 50 85.5 50 Z M 85.5 50 "/>
<path style=" stroke:none;fill-rule:nonzero;fill:rgb(99.215686%,98.823529%,93.725491%);fill-opacity:1;" d="M 43.875 32.5 C 43.875 32.5 47.515625 32.5 50 32.5 C 52.484375 32.5 54.5 30.484375 54.5 28 C 54.5 25.667969 52.71875 23.769531 50.445312 23.546875 C 50.46875 23.363281 50.5 23.1875 50.5 23 C 50.5 20.515625 48.484375 18.5 46 18.5 C 44.5625 18.5 43.296875 19.1875 42.472656 20.234375 C 42.332031 17.601562 40.171875 15.5 37.5 15.5 C 34.738281 15.5 32.5 17.738281 32.5 20.5 C 32.5 20.945312 32.578125 21.371094 32.6875 21.78125 C 32.046875 21.003906 31.085938 20.5 30 20.5 C 28.21875 20.5 26.765625 21.835938 26.546875 23.554688 C 26.363281 23.53125 26.1875 23.5 26 23.5 C 23.515625 23.5 21.5 25.515625 21.5 28 C 21.5 30.484375 23.515625 32.5 26 32.5 C 28.484375 32.5 35.5 32.5 35.5 32.5 L 40.875 32.5 L 40.875 33 L 43.875 33 Z M 43.875 32.5 "/>
<path style=" stroke:none;fill-rule:nonzero;fill:rgb(27.843139%,16.862746%,16.078432%);fill-opacity:1;" d="M 37.5 15 C 34.46875 15 32 17.46875 32 20.5 C 32 20.515625 32 20.53125 32 20.546875 C 31.398438 20.191406 30.710938 20 30 20 C 28.167969 20 26.589844 21.261719 26.140625 23.003906 C 26.09375 23.003906 26.046875 23 26 23 C 23.242188 23 21 25.242188 21 28 C 21 30.757812 23.242188 33 26 33 L 40.875 33 C 41.152344 33 41.375 32.777344 41.375 32.5 C 41.375 32.222656 41.152344 32 40.875 32 L 26 32 C 23.792969 32 22 30.207031 22 28 C 22 25.792969 23.792969 24 26 24 C 26.117188 24 26.230469 24.015625 26.34375 24.03125 L 26.484375 24.050781 C 26.503906 24.054688 26.523438 24.054688 26.546875 24.054688 C 26.792969 24.054688 27.007812 23.871094 27.039062 23.617188 C 27.230469 22.125 28.503906 21 30 21 C 30.886719 21 31.722656 21.402344 32.300781 22.101562 C 32.398438 22.21875 32.542969 22.28125 32.6875 22.28125 C 32.765625 22.28125 32.84375 22.265625 32.914062 22.226562 C 33.125 22.117188 33.230469 21.878906 33.167969 21.652344 C 33.054688 21.21875 33 20.851562 33 20.5 C 33 18.019531 35.019531 16 37.5 16 C 39.882812 16 41.847656 17.871094 41.972656 20.261719 C 41.984375 20.472656 42.125 20.648438 42.324219 20.714844 C 42.371094 20.730469 42.425781 20.738281 42.476562 20.738281 C 42.625 20.738281 42.769531 20.667969 42.867188 20.546875 C 43.636719 19.5625 44.777344 19 46 19 C 48.207031 19 50 20.792969 50 23 C 50 23.117188 49.984375 23.230469 49.96875 23.34375 L 49.949219 23.484375 C 49.933594 23.617188 49.972656 23.753906 50.054688 23.855469 C 50.140625 23.960938 50.261719 24.027344 50.394531 24.042969 C 52.449219 24.246094 54 25.949219 54 28 C 54 30.207031 52.207031 32 50 32 L 43.875 32 C 43.597656 32 43.375 32.222656 43.375 32.5 C 43.375 32.777344 43.597656 33 43.875 33 L 50 33 C 52.757812 33 55 30.757812 55 28 C 55 25.601562 53.3125 23.585938 50.996094 23.121094 C 51 23.082031 51 23.039062 51 23 C 51 20.242188 48.757812 18 46 18 C 44.824219 18 43.707031 18.414062 42.816406 19.164062 C 42.21875 16.761719 40.054688 15 37.5 15 Z M 37.5 15 "/>
<path style=" stroke:none;fill-rule:nonzero;fill:rgb(27.843139%,16.862746%,16.078432%);fill-opacity:1;" d="M 36 22 C 34.597656 22 33.390625 23 33.085938 24.339844 C 32.71875 24.117188 32.300781 24 31.875 24 C 30.671875 24 29.675781 24.898438 29.523438 26.066406 C 29.320312 26.023438 29.125 26 28.9375 26 C 27.40625 26 26.125 27.199219 26.019531 28.730469 C 26.011719 28.871094 26.113281 28.988281 26.25 29 C 26.257812 29 26.261719 29 26.269531 29 C 26.398438 29 26.507812 28.898438 26.519531 28.769531 C 26.605469 27.496094 27.667969 26.5 28.9375 26.5 C 29.164062 26.5 29.40625 26.542969 29.675781 26.628906 C 29.695312 26.632812 29.71875 26.636719 29.742188 26.636719 C 29.796875 26.636719 29.851562 26.617188 29.898438 26.582031 C 29.960938 26.535156 30 26.453125 30 26.375 C 30 25.339844 30.839844 24.5 31.875 24.5 C 32.320312 24.5 32.761719 24.667969 33.105469 24.972656 C 33.152344 25.015625 33.210938 25.035156 33.269531 25.035156 C 33.304688 25.035156 33.335938 25.03125 33.363281 25.015625 C 33.453125 24.980469 33.511719 24.898438 33.519531 24.804688 C 33.621094 23.511719 34.710938 22.5 36 22.5 C 36.207031 22.5 36.425781 22.535156 36.683594 22.605469 C 36.703125 22.613281 36.730469 22.617188 36.753906 22.617188 C 36.859375 22.617188 36.960938 22.542969 36.992188 22.433594 C 37.027344 22.300781 36.953125 22.164062 36.820312 22.125 C 36.515625 22.039062 36.257812 22 36 22 Z M 36 22 "/>
<path style=" stroke:none;fill-rule:nonzero;fill:rgb(27.843139%,16.862746%,16.078432%);fill-opacity:1;" d="M 49.882812 23.5 C 48.558594 23.5 47.375 24.398438 47.007812 25.683594 C 46.972656 25.816406 47.046875 25.953125 47.179688 25.992188 C 47.203125 25.996094 47.226562 26 47.25 26 C 47.359375 26 47.460938 25.929688 47.488281 25.816406 C 47.796875 24.746094 48.777344 24 49.882812 24 C 50 24 50.113281 24.015625 50.226562 24.027344 C 50.238281 24.03125 50.246094 24.03125 50.261719 24.03125 C 50.382812 24.03125 50.488281 23.941406 50.507812 23.816406 C 50.523438 23.679688 50.429688 23.550781 50.292969 23.535156 C 50.15625 23.515625 50.023438 23.5 49.882812 23.5 Z M 49.882812 23.5 "/>
<path style=" stroke:none;fill-rule:nonzero;fill:rgb(19.607843%,19.215687%,78.039217%);fill-opacity:1;" d="M 72.300781 35.699219 L 72.300781 66.300781 C 72.300781 69.609375 69.609375 72.300781 66.300781 72.300781 L 35.699219 72.300781 C 32.390625 72.300781 29.699219 69.609375 29.699219 66.300781 L 29.699219 35.699219 C 29.699219 32.390625 32.390625 29.699219 35.699219 29.699219 L 66.300781 29.699219 C 69.609375 29.699219 72.300781 32.390625 72.300781 35.699219 Z M 72.300781 35.699219 "/>
<path style=" stroke:none;fill-rule:nonzero;fill:rgb(44.705883%,15.686275%,67.843139%);fill-opacity:1;" d="M 72.300781 47.25 L 72.300781 66.300781 C 72.300781 69.609375 69.609375 72.300781 66.300781 72.300781 L 35.699219 72.300781 C 32.390625 72.300781 29.699219 69.609375 29.699219 66.300781 L 29.699219 35.699219 C 29.699219 32.390625 32.390625 29.699219 35.699219 29.699219 L 54.75 29.699219 C 61.988281 33.949219 68.050781 40.011719 72.300781 47.25 Z M 72.300781 47.25 "/>
<path style=" stroke:none;fill-rule:nonzero;fill:rgb(69.411767%,11.764706%,57.647061%);fill-opacity:1;" d="M 70.960938 70.078125 C 69.859375 71.429688 68.179688 72.300781 66.300781 72.300781 L 35.699219 72.300781 C 32.390625 72.300781 29.699219 69.609375 29.699219 66.300781 L 29.699219 35.699219 C 29.699219 33.820312 30.570312 32.140625 31.921875 31.039062 C 53.03125 32.019531 69.980469 48.96875 70.960938 70.078125 Z M 70.960938 70.078125 "/>
<path style=" stroke:none;fill-rule:nonzero;fill:rgb(85.882354%,10.196079%,34.509805%);fill-opacity:1;" d="M 63 72 L 63 72.300781 L 35.699219 72.300781 C 32.390625 72.300781 29.699219 69.609375 29.699219 66.300781 L 29.699219 39 L 30 39 C 48.230469 39 63 53.769531 63 72 Z M 63 72 "/>
<path style=" stroke:none;fill-rule:nonzero;fill:rgb(89.411765%,15.294118%,24.313726%);fill-opacity:1;" d="M 55 72 C 55 72.101562 55 72.199219 54.988281 72.300781 L 35.699219 72.300781 C 32.390625 72.300781 29.699219 69.609375 29.699219 66.300781 L 29.699219 47.011719 C 29.800781 47 29.898438 47 30 47 C 43.808594 47 55 58.191406 55 72 Z M 55 72 "/>
<path style=" stroke:none;fill-rule:nonzero;fill:rgb(95.686275%,48.627451%,13.333334%);fill-opacity:1;" d="M 48 72 C 48 72.101562 48 72.199219 47.988281 72.300781 L 35.699219 72.300781 C 32.390625 72.300781 29.699219 69.609375 29.699219 66.300781 L 29.699219 54.011719 C 29.800781 54 29.898438 54 30 54 C 39.941406 54 48 62.058594 48 72 Z M 48 72 "/>
<path style=" stroke:none;fill-rule:nonzero;fill:rgb(93.725491%,60.000002%,13.333334%);fill-opacity:1;" d="M 42 72 C 42 72.101562 42 72.199219 41.988281 72.300781 L 35.699219 72.300781 C 32.390625 72.300781 29.699219 69.609375 29.699219 66.300781 L 29.699219 60.011719 C 29.800781 60 29.898438 60 30 60 C 36.628906 60 42 65.371094 42 72 Z M 42 72 "/>
<path style=" stroke:none;fill-rule:nonzero;fill:rgb(27.843139%,16.862746%,16.078432%);fill-opacity:1;" d="M 66.300781 73 L 35.699219 73 C 32.007812 73 29 69.992188 29 66.300781 L 29 35.699219 C 29 32.007812 32.007812 29 35.699219 29 L 66.300781 29 C 69.992188 29 73 32.007812 73 35.699219 L 73 66.300781 C 73 69.992188 69.992188 73 66.300781 73 Z M 35.699219 30.398438 C 32.777344 30.398438 30.398438 32.777344 30.398438 35.699219 L 30.398438 66.300781 C 30.398438 69.222656 32.777344 71.601562 35.699219 71.601562 L 66.300781 71.601562 C 69.222656 71.601562 71.601562 69.222656 71.601562 66.300781 L 71.601562 35.699219 C 71.601562 32.777344 69.222656 30.398438 66.300781 30.398438 Z M 35.699219 30.398438 "/>
<path style=" stroke:none;fill-rule:nonzero;fill:rgb(100%,100%,100%);fill-opacity:1;" d="M 50.988281 66.5 C 47.007812 66.5 45.523438 66.488281 44.011719 66.421875 C 42.617188 66.359375 41.53125 66.148438 40.488281 65.738281 C 39.476562 65.347656 38.683594 64.835938 37.921875 64.070312 C 37.160156 63.3125 36.648438 62.519531 36.25 61.5 C 35.855469 60.488281 35.644531 59.402344 35.570312 57.980469 C 35.5 56.453125 35.488281 54.972656 35.488281 51 C 35.488281 47.035156 35.5 45.558594 35.570312 44.03125 C 35.632812 42.636719 35.839844 41.550781 36.25 40.511719 C 36.644531 39.484375 37.160156 38.691406 37.921875 37.941406 C 38.679688 37.183594 39.472656 36.667969 40.488281 36.269531 C 41.53125 35.863281 42.617188 35.652344 44.011719 35.589844 C 45.574219 35.519531 47.078125 35.5 50.988281 35.5 C 54.90625 35.5 56.402344 35.519531 57.960938 35.589844 C 59.351562 35.652344 60.4375 35.863281 61.480469 36.269531 C 62.507812 36.664062 63.300781 37.179688 64.050781 37.941406 C 64.800781 38.683594 65.320312 39.476562 65.730469 40.511719 C 66.128906 41.5625 66.335938 42.648438 66.402344 44.03125 C 66.472656 45.613281 66.492188 47.109375 66.492188 51 C 66.492188 54.898438 66.472656 56.398438 66.402344 57.980469 C 66.339844 59.363281 66.132812 60.449219 65.730469 61.5 C 65.320312 62.527344 64.800781 63.320312 64.050781 64.070312 C 63.300781 64.828125 62.511719 65.34375 61.488281 65.742188 C 60.433594 66.148438 59.347656 66.359375 57.960938 66.421875 C 56.445312 66.488281 54.964844 66.5 50.988281 66.5 Z M 49.679688 38.5 C 46.929688 38.5 45.417969 38.519531 44.105469 38.578125 C 42.773438 38.640625 42.039062 38.863281 41.546875 39.050781 C 40.9375 39.289062 40.5 39.574219 40.035156 40.039062 C 39.574219 40.496094 39.289062 40.933594 39.054688 41.535156 C 38.867188 42.03125 38.640625 42.765625 38.578125 44.105469 C 38.511719 45.609375 38.5 47 38.5 50.988281 C 38.5 54.988281 38.511719 56.378906 38.578125 57.882812 C 38.640625 59.210938 38.863281 59.945312 39.054688 60.4375 C 39.292969 61.058594 39.566406 61.480469 40.03125 61.945312 C 40.5 62.40625 40.9375 62.691406 41.546875 62.929688 C 42.023438 63.113281 42.742188 63.335938 44.105469 63.402344 C 45.664062 63.472656 47.144531 63.488281 50.992188 63.488281 C 54.847656 63.488281 56.328125 63.46875 57.886719 63.402344 C 59.28125 63.335938 60.019531 63.101562 60.449219 62.925781 C 61.050781 62.695312 61.484375 62.414062 61.949219 61.960938 C 62.40625 61.492188 62.695312 61.050781 62.9375 60.445312 C 63.121094 59.960938 63.339844 59.234375 63.402344 57.886719 C 63.472656 56.3125 63.492188 54.832031 63.492188 50.988281 C 63.492188 47.15625 63.472656 45.675781 63.402344 44.105469 C 63.339844 42.757812 63.121094 42.03125 62.9375 41.550781 C 62.703125 40.9375 62.417969 40.503906 61.960938 40.042969 C 61.46875 39.558594 61.066406 39.300781 60.429688 39.058594 C 59.96875 38.875 59.261719 38.652344 57.886719 38.589844 C 56.351562 38.519531 54.867188 38.5 50.992188 38.5 Z M 49.679688 38.5 "/>
<path style=" stroke:none;fill-rule:nonzero;fill:rgb(27.843139%,16.862746%,16.078432%);fill-opacity:1;" d="M 50.988281 35.800781 C 54.898438 35.800781 56.394531 35.820312 57.945312 35.890625 C 59.304688 35.949219 60.359375 36.15625 61.375 36.550781 C 62.359375 36.929688 63.117188 37.421875 63.839844 38.15625 C 64.558594 38.863281 65.058594 39.625 65.449219 40.613281 C 65.839844 41.636719 66.039062 42.695312 66.101562 44.042969 C 66.171875 45.617188 66.191406 47.113281 66.191406 51 C 66.191406 54.894531 66.171875 56.390625 66.101562 57.964844 C 66.039062 59.316406 65.839844 60.371094 65.453125 61.386719 C 65.058594 62.375 64.558594 63.136719 63.835938 63.859375 C 63.121094 64.585938 62.363281 65.078125 61.382812 65.460938 C 60.359375 65.855469 59.300781 66.058594 57.945312 66.121094 C 56.4375 66.1875 54.960938 66.199219 50.992188 66.199219 C 47.011719 66.199219 45.53125 66.1875 44.023438 66.121094 C 42.664062 66.058594 41.609375 65.855469 40.597656 65.460938 C 39.628906 65.085938 38.867188 64.589844 38.132812 63.859375 C 37.40625 63.128906 36.910156 62.367188 36.53125 61.390625 C 36.144531 60.410156 35.941406 59.351562 35.871094 57.96875 C 35.800781 56.445312 35.789062 54.964844 35.789062 51 C 35.789062 47.039062 35.800781 45.5625 35.871094 44.042969 C 35.933594 42.683594 36.136719 41.628906 36.53125 40.613281 C 36.910156 39.628906 37.402344 38.871094 38.132812 38.148438 C 38.859375 37.421875 39.621094 36.929688 40.601562 36.546875 C 41.609375 36.152344 42.664062 35.949219 44.023438 35.886719 C 45.585938 35.820312 47.082031 35.800781 50.988281 35.800781 M 50.988281 63.789062 C 54.851562 63.789062 56.335938 63.769531 57.898438 63.699219 C 59.339844 63.632812 60.109375 63.386719 60.554688 63.207031 C 61.195312 62.960938 61.660156 62.660156 62.164062 62.167969 C 62.652344 61.671875 62.953125 61.203125 63.21875 60.546875 C 63.40625 60.046875 63.636719 59.292969 63.699219 57.898438 C 63.769531 56.320312 63.789062 54.835938 63.789062 50.988281 C 63.789062 47.152344 63.769531 45.667969 63.699219 44.09375 C 63.636719 42.699219 63.40625 41.945312 63.21875 41.441406 C 62.96875 40.796875 62.65625 40.316406 62.167969 39.828125 C 61.648438 39.320312 61.207031 39.035156 60.542969 38.78125 C 60.058594 38.585938 59.316406 38.355469 57.898438 38.289062 C 56.359375 38.21875 54.875 38.199219 50.992188 38.199219 L 49.679688 38.199219 C 46.925781 38.199219 45.410156 38.21875 44.09375 38.277344 C 42.714844 38.34375 41.949219 38.574219 41.433594 38.769531 C 40.792969 39.023438 40.3125 39.335938 39.824219 39.824219 C 39.339844 40.308594 39.023438 40.789062 38.773438 41.429688 C 38.578125 41.941406 38.34375 42.710938 38.277344 44.089844 C 38.210938 45.601562 38.199219 46.992188 38.199219 50.988281 C 38.199219 54.992188 38.210938 56.386719 38.277344 57.894531 C 38.34375 59.269531 38.574219 60.03125 38.773438 60.546875 C 39.023438 61.199219 39.328125 61.667969 39.820312 62.160156 C 40.3125 62.644531 40.796875 62.957031 41.433594 63.207031 C 41.929688 63.402344 42.683594 63.632812 44.089844 63.699219 C 45.65625 63.769531 47.136719 63.789062 50.988281 63.789062 M 50.988281 35.300781 C 47 35.300781 45.535156 35.320312 44 35.390625 C 42.585938 35.453125 41.480469 35.667969 40.417969 36.082031 C 39.371094 36.492188 38.558594 37.019531 37.777344 37.796875 C 37 38.566406 36.46875 39.382812 36.0625 40.4375 C 35.648438 41.496094 35.433594 42.605469 35.371094 44.019531 C 35.300781 45.558594 35.289062 47.039062 35.289062 51 C 35.289062 54.96875 35.300781 56.449219 35.371094 57.988281 C 35.445312 59.433594 35.660156 60.539062 36.0625 61.570312 C 36.46875 62.617188 37 63.429688 37.777344 64.210938 C 38.5625 64.996094 39.378906 65.523438 40.417969 65.925781 C 41.480469 66.34375 42.585938 66.554688 44 66.617188 C 45.539062 66.6875 47.019531 66.699219 50.988281 66.699219 C 54.949219 66.699219 56.429688 66.691406 57.96875 66.617188 C 59.378906 66.554688 60.488281 66.34375 61.5625 65.925781 C 62.613281 65.515625 63.425781 64.988281 64.191406 64.210938 C 64.964844 63.441406 65.496094 62.628906 65.917969 61.570312 C 66.328125 60.496094 66.535156 59.390625 66.601562 57.988281 C 66.671875 56.453125 66.691406 54.988281 66.691406 51 C 66.691406 47.019531 66.671875 45.554688 66.601562 44.019531 C 66.539062 42.617188 66.328125 41.515625 65.917969 40.433594 C 65.496094 39.371094 64.964844 38.558594 64.191406 37.796875 C 63.421875 37.019531 62.609375 36.488281 61.554688 36.082031 C 60.492188 35.664062 59.386719 35.453125 57.96875 35.390625 C 56.441406 35.320312 54.980469 35.300781 50.988281 35.300781 Z M 50.988281 63.289062 C 47.148438 63.289062 45.671875 63.269531 44.113281 63.199219 C 42.777344 63.140625 42.078125 62.921875 41.617188 62.742188 C 41.035156 62.515625 40.617188 62.242188 40.171875 61.804688 C 39.730469 61.363281 39.46875 60.960938 39.238281 60.367188 C 39.058594 59.890625 38.839844 59.171875 38.777344 57.871094 C 38.710938 56.382812 38.699219 54.992188 38.699219 50.988281 C 38.699219 46.992188 38.710938 45.605469 38.777344 44.113281 C 38.839844 42.804688 39.058594 42.089844 39.242188 41.609375 C 39.464844 41.035156 39.738281 40.617188 40.179688 40.179688 C 40.617188 39.738281 41.035156 39.464844 41.617188 39.238281 C 42.089844 39.058594 42.808594 38.839844 44.117188 38.777344 C 45.421875 38.722656 46.929688 38.699219 49.679688 38.699219 L 50.992188 38.699219 C 54.867188 38.699219 56.347656 38.71875 57.875 38.789062 C 59.222656 38.851562 59.910156 39.066406 60.359375 39.246094 C 60.96875 39.480469 61.347656 39.722656 61.816406 40.183594 C 62.253906 40.621094 62.527344 41.039062 62.753906 41.621094 C 62.929688 42.085938 63.140625 42.792969 63.203125 44.117188 C 63.269531 45.671875 63.289062 47.152344 63.289062 50.992188 C 63.289062 54.839844 63.269531 56.320312 63.203125 57.878906 C 63.140625 59.199219 62.929688 59.902344 62.75 60.371094 C 62.515625 60.957031 62.25 61.367188 61.808594 61.820312 C 61.363281 62.257812 60.957031 62.519531 60.375 62.742188 C 59.953125 62.910156 59.246094 63.140625 57.875 63.203125 C 56.320312 63.269531 54.839844 63.289062 50.988281 63.289062 Z M 50.988281 63.289062 "/>
<path style=" stroke:none;fill-rule:nonzero;fill:rgb(100%,100%,100%);fill-opacity:1;" d="M 59.5 40.75 C 58.535156 40.75 57.75 41.535156 57.75 42.5 C 57.75 43.464844 58.535156 44.25 59.5 44.25 C 60.464844 44.25 61.25 43.464844 61.25 42.5 C 61.25 41.535156 60.464844 40.75 59.5 40.75 Z M 59.5 40.75 "/>
<path style=" stroke:none;fill-rule:nonzero;fill:rgb(27.843139%,16.862746%,16.078432%);fill-opacity:1;" d="M 59.5 41 C 60.328125 41 61 41.671875 61 42.5 C 61 43.328125 60.328125 44 59.5 44 C 58.671875 44 58 43.328125 58 42.5 C 58 41.671875 58.671875 41 59.5 41 M 59.5 40.5 C 58.398438 40.5 57.5 41.398438 57.5 42.5 C 57.5 43.601562 58.398438 44.5 59.5 44.5 C 60.601562 44.5 61.5 43.601562 61.5 42.5 C 61.5 41.398438 60.601562 40.5 59.5 40.5 Z M 59.5 40.5 "/>
<path style=" stroke:none;fill-rule:nonzero;fill:rgb(100%,100%,100%);fill-opacity:1;" d="M 50.988281 42.503906 C 46.292969 42.503906 42.488281 46.308594 42.488281 51.003906 C 42.488281 55.699219 46.292969 59.503906 50.988281 59.503906 C 55.683594 59.503906 59.488281 55.699219 59.488281 51.003906 C 59.488281 46.3125 55.683594 42.503906 50.988281 42.503906 Z M 50.988281 45.503906 C 54.023438 45.503906 56.488281 47.96875 56.488281 51.003906 C 56.488281 54.042969 54.023438 56.503906 50.988281 56.503906 C 47.949219 56.503906 45.488281 54.042969 45.488281 51.003906 C 45.488281 47.96875 47.949219 45.503906 50.988281 45.503906 Z M 50.988281 45.503906 "/>
<path style=" stroke:none;fill-rule:nonzero;fill:rgb(27.843139%,16.862746%,16.078432%);fill-opacity:1;" d="M 50.988281 59.753906 C 46.164062 59.753906 42.238281 55.828125 42.238281 51.003906 C 42.238281 46.179688 46.164062 42.253906 50.988281 42.253906 C 55.8125 42.253906 59.738281 46.179688 59.738281 51.003906 C 59.738281 55.828125 55.8125 59.753906 50.988281 59.753906 Z M 50.988281 42.753906 C 46.4375 42.753906 42.738281 46.453125 42.738281 51.003906 C 42.738281 55.554688 46.4375 59.253906 50.988281 59.253906 C 55.535156 59.253906 59.238281 55.554688 59.238281 51.003906 C 59.238281 46.453125 55.535156 42.753906 50.988281 42.753906 Z M 50.988281 56.753906 C 47.816406 56.753906 45.238281 54.175781 45.238281 51.003906 C 45.238281 47.835938 47.816406 45.253906 50.988281 45.253906 C 54.160156 45.253906 56.738281 47.835938 56.738281 51.003906 C 56.738281 54.175781 54.160156 56.753906 50.988281 56.753906 Z M 50.988281 45.753906 C 48.09375 45.753906 45.738281 48.109375 45.738281 51.003906 C 45.738281 53.898438 48.09375 56.253906 50.988281 56.253906 C 53.882812 56.253906 56.238281 53.898438 56.238281 51.003906 C 56.238281 48.109375 53.882812 45.753906 50.988281 45.753906 Z M 50.988281 45.753906 "/>
<path style=" stroke:none;fill-rule:nonzero;fill:rgb(99.215686%,98.823529%,93.725491%);fill-opacity:1;" d="M 80.5 76.5 C 80.5 76.5 82.066406 76.5 84 76.5 C 85.933594 76.5 87.5 74.933594 87.5 73 C 87.5 71.21875 86.164062 69.765625 84.445312 69.546875 C 84.472656 69.367188 84.5 69.1875 84.5 69 C 84.5 67.066406 82.933594 65.5 81 65.5 C 79.96875 65.5 79.050781 65.953125 78.410156 66.664062 C 78.027344 64.855469 76.421875 63.5 74.5 63.5 C 72.289062 63.5 70.5 65.289062 70.5 67.5 C 70.5 67.691406 70.53125 67.875 70.554688 68.058594 C 70.128906 67.714844 69.59375 67.5 69 67.5 C 67.773438 67.5 66.753906 68.386719 66.546875 69.554688 C 66.367188 69.527344 66.1875 69.5 66 69.5 C 64.066406 69.5 62.5 71.066406 62.5 73 C 62.5 74.933594 64.066406 76.5 66 76.5 C 67.933594 76.5 73.5 76.5 73.5 76.5 L 73.5 77 L 80.5 77 Z M 80.5 76.5 "/>
<path style=" stroke:none;fill-rule:nonzero;fill:rgb(27.843139%,16.862746%,16.078432%);fill-opacity:1;" d="M 82.25 72 C 82.113281 72 82 71.886719 82 71.75 C 82 70.527344 82.996094 69.53125 84.21875 69.53125 C 84.253906 69.539062 84.953125 69.53125 85.460938 69.667969 C 85.59375 69.703125 85.675781 69.839844 85.636719 69.972656 C 85.601562 70.109375 85.464844 70.1875 85.332031 70.148438 C 84.886719 70.03125 84.230469 70.03125 84.21875 70.03125 C 83.269531 70.03125 82.5 70.804688 82.5 71.75 C 82.5 71.886719 82.386719 72 82.25 72 Z M 82.25 72 "/>
<path style=" stroke:none;fill-rule:nonzero;fill:rgb(27.843139%,16.862746%,16.078432%);fill-opacity:1;" d="M 76 76.5 C 76 76.777344 75.777344 77 75.5 77 C 75.222656 77 75 76.777344 75 76.5 C 75 76.222656 75.222656 76 75.5 76 C 75.777344 76 76 76.222656 76 76.5 Z M 76 76.5 "/>
<path style=" stroke:none;fill-rule:nonzero;fill:rgb(27.843139%,16.862746%,16.078432%);fill-opacity:1;" d="M 84 77 L 80.5 77 C 80.222656 77 80 76.777344 80 76.5 C 80 76.222656 80.222656 76 80.5 76 L 84 76 C 85.652344 76 87 74.652344 87 73 C 87 71.503906 85.875 70.230469 84.382812 70.039062 C 84.246094 70.023438 84.128906 69.953125 84.046875 69.84375 C 83.964844 69.738281 83.929688 69.601562 83.953125 69.46875 C 83.976562 69.3125 84 69.160156 84 69 C 84 67.347656 82.652344 66 81 66 C 80.148438 66 79.363281 66.355469 78.78125 67 C 78.65625 67.140625 78.460938 67.199219 78.28125 67.148438 C 78.097656 67.097656 77.960938 66.953125 77.921875 66.769531 C 77.578125 65.164062 76.140625 64 74.5 64 C 72.570312 64 71 65.570312 71 67.5 C 71 67.644531 71.019531 67.78125 71.039062 67.917969 C 71.070312 68.121094 70.976562 68.355469 70.800781 68.457031 C 70.621094 68.558594 70.402344 68.574219 70.242188 68.449219 C 69.878906 68.15625 69.449219 68 69 68 C 68.035156 68 67.207031 68.691406 67.035156 69.644531 C 66.988281 69.910156 66.742188 70.089844 66.46875 70.050781 C 66.3125 70.023438 66.160156 70 66 70 C 64.347656 70 63 71.347656 63 73 C 63 74.652344 64.347656 76 66 76 L 73.5 76 C 73.777344 76 74 76.222656 74 76.5 C 74 76.777344 73.777344 77 73.5 77 L 66 77 C 63.792969 77 62 75.207031 62 73 C 62 70.792969 63.792969 69 66 69 C 66.058594 69 66.117188 69.003906 66.175781 69.007812 C 66.589844 67.820312 67.710938 67 69 67 C 69.347656 67 69.6875 67.0625 70.011719 67.179688 C 70.175781 64.847656 72.125 63 74.5 63 C 76.332031 63 77.964844 64.128906 78.652344 65.773438 C 79.332031 65.277344 80.15625 65 81 65 C 83.207031 65 85 66.792969 85 69 C 85 69.046875 85 69.09375 84.996094 69.140625 C 86.738281 69.589844 88 71.167969 88 73 C 88 75.207031 86.207031 77 84 77 Z M 84 77 "/>
<path style=" stroke:none;fill-rule:nonzero;fill:rgb(27.843139%,16.862746%,16.078432%);fill-opacity:1;" d="M 78.5 76 C 78.339844 76 77.660156 76 77.5 76 C 77.222656 76 77 76.222656 77 76.5 C 77 76.777344 77.222656 77 77.5 77 C 77.660156 77 78.339844 77 78.5 77 C 78.777344 77 79 76.777344 79 76.5 C 79 76.222656 78.777344 76 78.5 76 Z M 78.5 76 "/>
</g>
</svg>
